<?xml version="1.0" standalone="no"?>
<!DOCTYPE svg PUBLIC "-//W3C//DTD SVG 20010904//EN"
 "http://www.w3.org/TR/2001/REC-SVG-20010904/DTD/svg10.dtd">
<svg version="1.0" xmlns="http://www.w3.org/2000/svg"
 width="3909.000000pt" height="3909.000000pt" viewBox="0 0 3909.000000 3909.000000"
 preserveAspectRatio="xMidYMid meet">

<g transform="translate(0.000000,3909.000000) scale(0.100000,-0.100000)"
fill="#000000" stroke="none">
<path d="M21490 33699 c-2727 -102 -5505 -917 -8035 -2357 -774 -441 -1548
-959 -2264 -1516 l-194 -151 358 -3 c288 -2 356 -5 352 -15 -4 -12 -292 -479
-336 -547 -22 -34 -10 -26 134 90 271 217 679 519 1010 746 1531 1051 3228
1859 4970 2367 1529 447 3142 670 4635 643 343 -6 468 -12 855 -37 l180 -12
95 26 c109 30 252 58 425 84 98 14 192 18 515 18 l395 1 97 32 c252 82 614
104 870 52 233 -48 513 -169 683 -296 130 -98 337 -310 410 -421 l60 -91 200
-66 c384 -128 614 -232 765 -347 207 -157 329 -269 404 -369 41 -54 78 -105
82 -113 5 -8 38 -32 74 -52 790 -456 1465 -955 2115 -1564 l140 -131 594 0
593 0 -37 43 c-257 289 -664 691 -977 964 -835 731 -1792 1346 -2838 1826
-1895 869 -4073 1281 -6330 1196z"/>
<path d="M23910 32920 c-103 -8 -313 -38 -345 -50 -13 -5 4 -10 50 -15 39 -4
175 -22 304 -40 l234 -34 87 62 c48 34 96 67 106 74 15 9 -18 12 -161 11 -99
-1 -223 -4 -275 -8z"/>
<path d="M21510 32534 c-1528 -55 -2865 -289 -4350 -761 -1586 -504 -3228
-1331 -4650 -2343 -624 -444 -1357 -1044 -1823 -1492 l-107 -103 -2446 -3949
c-1345 -2173 -2448 -3956 -2451 -3963 -4 -11 144 -13 816 -13 l821 0 0 943 0
942 1934 3160 c1063 1737 1953 3182 1977 3210 95 110 221 191 359 231 88 25
288 26 380 1 305 -84 524 -344 544 -649 4 -45 13 -1523 21 -3283 8 -1760 18
-3408 21 -3662 l6 -463 803 0 802 0 120 148 c157 191 276 323 509 561 l189
194 7 751 c6 702 10 861 24 977 l6 47 -43 -5 c-54 -6 -94 21 -108 72 -18 65
11 115 65 115 40 0 89 -45 99 -91 l7 -31 19 42 c64 143 204 290 348 364 49 25
100 46 114 46 21 0 41 -21 106 -110 83 -112 126 -179 120 -184 -2 -1 -44 -20
-94 -40 -161 -66 -245 -138 -305 -257 -39 -76 -51 -186 -44 -399 2 -74 9 -330
15 -569 6 -238 14 -444 18 -458 6 -23 13 -20 241 113 287 166 503 281 853 456
147 73 267 136 267 139 0 3 -45 75 -101 160 -162 247 -261 468 -349 774 -21
76 -48 151 -58 165 -11 14 -71 52 -134 86 -148 77 -207 121 -251 186 -67 98
-93 209 -107 458 -8 157 1 735 16 1003 6 116 7 119 46 177 45 69 130 149 185
176 21 10 92 37 157 59 l120 40 22 125 c69 402 239 759 572 1205 150 200 365
430 537 572 543 450 1294 744 2025 793 548 37 1214 -108 1735 -379 481 -249
998 -689 1287 -1096 115 -162 282 -541 476 -1085 l59 -165 114 -41 c142 -51
182 -71 241 -123 99 -87 107 -146 107 -726 0 -713 -13 -869 -87 -986 -42 -65
-93 -104 -234 -179 -87 -47 -127 -74 -136 -93 -7 -15 -26 -86 -42 -159 -37
-176 -68 -263 -155 -445 -81 -167 -170 -312 -257 -417 -32 -37 -58 -77 -58
-87 0 -29 56 -60 305 -169 408 -179 801 -383 938 -486 65 -48 81 -53 93 -26
13 29 17 920 5 1141 -10 187 -13 209 -36 257 -54 111 -207 216 -344 237 -39 6
-71 15 -71 19 0 13 96 122 177 200 87 84 120 102 167 93 109 -23 353 -271 391
-398 22 -75 33 -376 41 -1152 l7 -670 266 -270 c254 -257 405 -422 535 -582
l58 -73 194 0 193 0 49 49 c28 28 62 52 80 56 40 8 94 -17 143 -67 l37 -38
434 0 435 0 6 353 c4 193 7 681 7 1084 l0 731 -30 -28 c-59 -55 -129 -51 -184
11 -59 65 -43 134 40 174 46 22 87 14 135 -25 l37 -29 6 62 c3 34 7 550 8
1147 l3 1085 -36 17 c-108 51 -106 176 4 247 l37 24 1 496 c1 273 5 863 8
1311 8 805 8 816 30 890 131 438 617 654 1026 455 96 -46 163 -98 234 -180 24
-28 914 -1472 1977 -3210 l1934 -3160 0 -942 0 -943 821 0 c670 0 820 2 816
13 -3 7 -1358 2197 -3012 4867 -1654 2669 -3009 4859 -3012 4867 -4 11 206 13
1238 13 l1244 1 -50 45 c-194 177 -580 485 -850 679 -230 165 -690 465 -713
465 -4 0 -19 -24 -34 -52 -59 -122 -195 -267 -313 -335 -207 -120 -355 -174
-625 -227 -230 -46 -289 -53 -581 -68 l-246 -12 -23 -34 c-58 -84 -264 -241
-440 -335 -381 -203 -851 -260 -1277 -156 -187 46 -339 115 -528 242 -144 96
-324 272 -427 417 -81 114 -183 314 -200 390 -14 68 -20 75 -74 99 -63 28
-321 177 -379 220 -92 67 -399 328 -462 392 -222 230 -331 508 -293 752 20
132 61 237 125 322 20 26 35 49 32 51 -5 5 -878 12 -997 8z m-2919 -494 c24
-13 49 -61 49 -94 0 -65 -47 -106 -120 -106 -77 0 -126 83 -89 151 25 47 113
74 160 49z m3387 -42 c29 -27 61 -93 62 -126 0 -57 -68 -128 -133 -139 -30 -4
-40 0 -75 32 -97 87 -88 190 23 250 38 20 90 13 123 -17z m-1378 -126 c61 -62
57 -155 -10 -200 -93 -63 -220 46 -176 151 33 79 130 105 186 49z m769 -457
c35 -18 65 -85 56 -126 -8 -37 -59 -79 -94 -79 -57 0 -115 74 -104 132 6 33
65 88 94 88 11 0 33 -7 48 -15z m-4771 -191 c61 -69 -14 -179 -98 -144 -32 13
-50 47 -50 95 0 25 8 40 32 60 38 32 81 29 116 -11z m5479 -300 c8 -21 -13
-42 -28 -27 -13 13 -5 43 11 43 6 0 13 -7 17 -16z m-4470 -16 c8 -13 39 -120
49 -169 4 -15 0 -30 -8 -36 -14 -12 -142 -36 -198 -37 l-35 -1 -6 55 c-3 31
-11 65 -17 77 -16 30 -15 68 3 83 8 7 47 16 85 20 39 4 74 11 77 14 11 10 41
7 50 -6z m5173 -147 c34 -24 51 -78 40 -126 -17 -77 -79 -125 -162 -125 -94 0
-142 85 -104 184 20 51 32 63 83 82 46 17 109 10 143 -15z m-2686 -142 c87
-40 26 -169 -81 -169 -44 0 -55 6 -72 38 -18 34 -4 77 35 112 37 32 75 38 118
19z m-1384 -151 c18 -13 35 -38 42 -61 10 -34 9 -44 -8 -75 -21 -41 -62 -67
-116 -77 -33 -6 -40 -3 -82 38 -36 34 -46 51 -46 76 0 40 24 87 52 102 63 34
110 33 158 -3z m9435 -228 c0 -19 -6 -26 -26 -28 -34 -4 -57 22 -39 44 8 8 25
14 39 12 20 -2 26 -9 26 -28z m-11555 -110 c41 -41 13 -100 -46 -100 -54 0
-85 67 -48 104 22 22 70 20 94 -4z m12370 -145 c75 -39 90 -105 35 -154 -51
-45 -104 -44 -151 3 -54 54 -46 116 21 151 38 19 58 19 95 0z m-7946 -61 c21
-21 20 -87 -1 -112 -58 -69 -144 1 -101 81 24 46 73 61 102 31z m2744 -60 c52
-36 12 -129 -60 -141 -72 -11 -115 25 -106 88 7 54 116 89 166 53z m-2210 -15
c13 -5 47 -9 77 -9 37 0 60 -6 76 -19 l24 -19 -24 -54 c-13 -29 -30 -73 -38
-98 -26 -84 -35 -95 -74 -94 -18 1 -52 9 -74 17 -22 9 -60 16 -85 17 -78 0
-89 37 -40 130 17 30 30 65 30 78 0 13 11 34 25 48 25 25 41 25 103 3z m-6107
-166 c36 -22 62 -76 62 -129 0 -112 -129 -188 -218 -130 -32 21 -59 96 -51
139 19 103 129 166 207 120z m-1696 -29 c20 -8 45 -56 45 -86 0 -59 -71 -118
-125 -104 -37 9 -60 66 -45 112 20 58 78 95 125 78z m13093 -111 c5 -17 -26
-29 -40 -15 -6 6 -7 15 -3 22 9 14 37 9 43 -7z m-7356 -102 c30 -35 53 -111
44 -146 -12 -47 -106 -115 -158 -115 -53 0 -107 76 -108 150 0 74 72 139 157
140 33 0 46 -5 65 -29z m6448 -26 c32 -16 74 -67 84 -102 8 -26 -5 -56 -43
-96 -58 -64 -137 -76 -191 -31 -84 71 -79 164 12 218 49 29 96 33 138 11z
m-5622 -46 c3 -30 -18 -52 -42 -43 -19 7 -21 45 -4 62 19 19 43 10 46 -19z
m-3520 -37 c3 -16 -2 -22 -16 -22 -22 0 -32 17 -24 38 7 20 37 9 40 -16z
m1567 22 c18 -7 45 -55 45 -79 0 -23 -45 -65 -70 -65 -31 0 -80 53 -80 86 0
51 50 79 105 58z m2214 -389 c74 -38 57 -152 -27 -174 -73 -20 -152 24 -152
83 1 86 96 134 179 91z m5975 -116 c15 -12 32 -33 37 -46 20 -54 -47 -133
-114 -133 -42 0 -97 58 -97 102 1 81 108 129 174 77z m-9226 -75 c29 -33 31
-105 2 -134 -39 -39 -126 -38 -155 3 -18 26 -19 76 -3 113 26 56 113 67 156
18z m2506 -28 c23 -9 37 -24 45 -46 19 -56 14 -80 -28 -121 -30 -31 -46 -39
-74 -39 -48 0 -87 45 -87 101 0 55 14 77 63 100 51 22 41 22 81 5z m-4973 -57
c31 -33 45 -84 35 -125 -16 -64 -113 -112 -164 -83 -87 49 -86 162 1 218 48
31 93 27 128 -10z m9969 16 c64 -33 76 -115 25 -181 -60 -79 -155 -86 -227
-16 -36 34 -39 105 -6 147 49 62 141 84 208 50z m-8246 -95 c46 -17 80 -122
57 -178 -27 -65 -153 -92 -205 -43 -53 50 -59 146 -12 191 37 34 112 48 160
30z m7105 -96 c48 -10 81 -46 81 -91 0 -85 -76 -146 -153 -123 -54 16 -87 51
-87 92 0 44 33 96 73 113 37 16 44 17 86 9z m-8462 -101 c24 -31 28 -46 28
-103 0 -57 -4 -72 -27 -103 -60 -78 -201 -115 -313 -82 l-59 17 54 46 c30 25
105 95 165 154 61 59 113 108 117 108 4 0 20 -17 35 -37z m6533 7 c27 -27 25
-61 -4 -93 -32 -34 -72 -44 -104 -26 -55 31 -54 86 1 119 41 25 82 25 107 0z
m925 -195 c0 -22 -31 -33 -48 -16 -7 7 -6 15 3 26 17 21 45 15 45 -10z m-4854
-121 c31 -16 59 -66 59 -106 0 -70 -78 -121 -151 -99 -57 17 -82 55 -76 114 8
90 88 133 168 91z m8350 -75 c61 -43 60 -131 -3 -184 -69 -58 -158 -36 -192
48 -19 45 -19 49 -3 82 34 70 136 99 198 54z m-10787 -40 c90 -71 87 -222 -6
-279 -60 -37 -104 -45 -143 -27 -62 30 -109 131 -92 199 4 13 21 38 39 56 68
70 151 91 202 51z m-1120 -256 c8 -19 -17 -48 -33 -39 -12 8 -15 39 -4 49 12
12 31 7 37 -10z m9208 -53 c21 -6 51 -22 68 -36 25 -22 30 -33 30 -70 0 -110
-87 -195 -185 -178 -52 8 -112 39 -125 63 -29 56 12 185 69 216 31 17 92 19
143 5z m-764 -216 c29 -33 29 -78 0 -98 -31 -22 -52 -20 -87 10 -36 30 -42 81
-14 109 22 23 71 13 101 -21z m-9179 -330 c25 -32 26 -55 6 -94 -41 -79 -135
-59 -135 29 0 53 31 91 75 91 24 0 39 -7 54 -26z m1349 -354 c77 -47 74 -155
-4 -174 -35 -9 -90 20 -114 59 -58 94 22 173 118 115z m7992 -165 c18 -22 8
-50 -19 -50 -28 0 -47 25 -38 49 8 20 40 21 57 1z m2506 -25 c121 -59 98 -202
-38 -241 -45 -12 -105 6 -140 43 -23 24 -28 39 -28 79 0 40 5 54 32 85 52 59
102 68 174 34z m-1173 -341 c29 -15 57 -50 57 -72 0 -32 -28 -74 -60 -87 -95
-39 -201 34 -159 111 25 48 112 74 162 48z m-8391 -79 c94 -27 126 -171 51
-230 -32 -25 -85 -26 -140 -1 -96 44 -102 186 -10 226 39 17 52 18 99 5z
m-2372 -198 c39 -39 47 -90 24 -139 -23 -46 -58 -61 -110 -47 -51 13 -76 49
-77 113 -1 69 28 101 91 101 35 0 49 -6 72 -28z m9908 -38 c52 -36 68 -121 30
-161 -29 -31 -104 -32 -142 -2 -45 35 -53 117 -15 158 24 26 94 29 127 5z
m-8987 -690 c27 -9 60 -13 85 -10 65 8 79 -8 80 -96 0 -40 4 -97 8 -125 11
-67 3 -71 -113 -48 -49 9 -98 14 -109 11 -10 -4 -32 -2 -47 4 -26 10 -27 13
-20 53 10 55 10 113 0 159 -14 67 26 85 116 52z m10811 -381 c21 -20 63 -51
95 -67 85 -46 88 -59 28 -110 -27 -22 -75 -67 -105 -98 -69 -72 -88 -74 -127
-13 -20 33 -43 53 -80 71 -95 47 -97 79 -12 136 31 20 71 55 89 77 40 51 63
52 112 4z m-11996 -132 c43 -26 62 -82 40 -116 -22 -33 -57 -40 -95 -21 -37
20 -51 44 -51 90 0 25 6 39 22 50 29 21 46 20 84 -3z m10674 -196 c92 -47 92
-157 0 -195 -43 -18 -100 0 -139 45 -42 49 -41 87 3 131 38 38 86 45 136 19z
m-8249 -181 c37 -19 68 -83 69 -140 0 -52 -28 -90 -80 -105 -100 -30 -200 46
-200 152 0 33 6 47 34 75 31 31 40 34 90 34 32 0 70 -7 87 -16z m10333 -72 c9
-14 -12 -35 -28 -29 -23 9 -20 37 3 37 11 0 22 -4 25 -8z m-11367 -18 c8 -21
-13 -42 -28 -27 -13 13 -5 43 11 43 6 0 13 -7 17 -16z m-1305 -529 c10 -21 9
-29 -5 -43 -13 -12 -21 -14 -34 -6 -43 27 -42 74 2 74 18 0 29 -8 37 -25z
m11432 -256 c19 -15 26 -30 26 -54 0 -95 -158 -101 -185 -7 -5 17 1 30 24 52
37 37 94 41 135 9z m-11866 -493 c45 -23 64 -66 64 -148 0 -85 -16 -113 -73
-128 -90 -25 -199 33 -214 113 -12 62 3 127 36 160 28 28 34 29 93 25 34 -3
76 -13 94 -22z m843 -52 c61 -31 80 -144 33 -191 -23 -23 -31 -25 -81 -21 -48
4 -61 10 -85 37 -23 25 -28 41 -28 80 0 69 35 111 91 111 22 0 54 -7 70 -16z
m11803 -60 c21 -20 20 -27 -4 -49 -39 -36 -99 7 -64 46 21 23 47 24 68 3z
m-12356 -660 c65 -74 -28 -154 -98 -84 -26 26 -27 94 -2 110 26 15 74 3 100
-26z m12763 -202 c59 -38 109 -97 109 -128 0 -74 -103 -164 -187 -164 -64 1
-159 84 -169 151 -7 44 24 93 90 137 60 40 98 41 157 4z m-11796 -42 c58 -28
89 -85 82 -153 -11 -115 -127 -143 -225 -54 -53 49 -48 153 9 201 37 32 78 33
134 6z m10450 -284 c47 -20 57 -59 23 -93 -29 -29 -76 -33 -112 -9 -44 28 -30
89 24 109 23 9 28 8 65 -7z m-11255 -327 c13 -22 -1 -49 -26 -49 -21 0 -45 41
-32 57 16 20 46 16 58 -8z m11939 -203 c18 -22 2 -46 -30 -46 -33 0 -48 22
-29 45 16 19 44 19 59 1z m874 -191 c62 -43 62 -109 -2 -152 -50 -34 -96 -30
-137 11 -51 51 -45 118 14 150 40 22 83 19 125 -9z m-12334 -281 c26 -19 51
-71 51 -109 0 -42 -41 -75 -93 -75 -54 0 -91 26 -107 75 -13 41 1 99 28 115
27 15 95 12 121 -6z m-760 -49 c36 -18 61 -79 61 -149 0 -47 -4 -57 -26 -75
-54 -42 -150 -36 -200 14 -50 50 -54 155 -9 201 20 20 34 24 85 24 34 0 74 -6
89 -15z"/>
<path d="M22658 32482 c-52 -47 -124 -157 -149 -226 -69 -200 -39 -377 100
-587 123 -187 351 -404 591 -563 139 -93 278 -171 287 -163 3 3 -2 37 -11 74
-27 117 -36 184 -43 310 l-6 123 -67 50 c-102 75 -207 203 -269 327 -100 200
-74 438 66 593 25 28 44 53 42 55 -3 2 -94 11 -204 19 -329 25 -295 26 -337
-12z"/>
<path d="M23344 32410 c-116 -95 -173 -205 -174 -333 0 -133 46 -231 184 -389
62 -71 81 -87 87 -75 5 8 21 60 35 114 62 240 133 404 249 578 36 54 64 99 62
101 -1 2 -75 12 -162 24 -88 11 -174 22 -191 24 -26 4 -42 -4 -90 -44z"/>
<path d="M26780 32182 c0 -4 14 -38 31 -77 l32 -70 186 -79 c258 -109 403
-177 662 -306 123 -62 217 -104 209 -95 -28 34 -267 220 -368 286 -150 100
-418 231 -597 294 -85 30 -155 51 -155 47z"/>
<path d="M26964 31357 c-1 -102 -8 -199 -19 -262 -18 -103 -56 -238 -82 -288
-8 -16 -13 -30 -11 -32 6 -7 164 24 253 50 143 40 228 87 306 167 85 86 109
135 109 215 l0 60 -177 86 c-183 88 -358 167 -371 167 -4 0 -8 -73 -8 -163z"/>
<path d="M27643 31139 c-15 -77 -41 -130 -102 -205 l-49 -60 29 -13 c52 -23
51 -90 -1 -111 -38 -16 -73 -7 -104 26 l-24 27 -74 -31 c-147 -61 -328 -102
-450 -102 l-57 0 -47 -87 c-67 -124 -130 -222 -172 -267 l-37 -38 90 7 c349
26 575 57 768 105 292 73 489 190 639 379 54 67 104 149 96 156 -8 7 -293 167
-388 218 l-106 56 -11 -60z"/>
<path d="M3735 24663 c-1447 -2495 -2681 -4624 -2742 -4732 -337 -588 -499
-1129 -520 -1736 -12 -378 42 -755 152 -1051 278 -745 911 -1212 1850 -1364
336 -55 237 -53 2613 -57 l2202 -4 0 -1754 0 -1755 1398 1 1397 0 149 167
c343 384 429 472 511 527 252 167 529 236 955 238 l145 1 57 70 c32 39 87 103
123 143 l65 71 0 1146 0 1146 990 0 990 0 0 2075 0 2075 -989 0 -988 0 -7 818
c-3 449 -13 2214 -22 3922 -17 3488 -8 3179 -93 3261 -107 103 -279 104 -372
3 -15 -16 -878 -1420 -1918 -3120 l-1891 -3092 0 -1111 0 -1111 -1481 0 -1481
0 23 38 c13 20 1372 2215 3021 4876 1649 2661 2998 4841 2998 4843 0 1 -1014
3 -2252 3 l-2253 0 -2630 -4537z"/>
<path d="M28220 29197 c0 -2 1349 -2182 2998 -4843 1649 -2661 3008 -4856
3021 -4876 l23 -38 -1481 0 -1481 0 0 1111 0 1111 -1891 3092 c-1040 1700
-1903 3104 -1918 3120 -92 101 -265 100 -372 -3 -85 -82 -76 227 -93 -3261 -9
-1708 -19 -3473 -22 -3922 l-7 -818 -988 0 -989 0 0 -2075 0 -2075 990 0 990
0 0 -1755 0 -1755 2400 0 2400 0 0 1755 0 1754 2203 4 c2348 4 2262 2 2585 52
947 143 1596 618 1877 1369 197 529 205 1259 20 1896 -90 310 -213 588 -423
951 -81 141 -1315 2271 -2742 4733 l-2595 4476 -2252 0 c-1239 0 -2253 -2
-2253 -3z"/>
<path d="M19207 27870 c-202 -16 -385 -57 -651 -145 -269 -90 -427 -164 -656
-310 -390 -249 -636 -482 -899 -853 -302 -426 -435 -780 -466 -1237 -3 -49 -8
-106 -11 -125 -9 -57 8 -29 106 180 51 107 113 231 138 275 238 422 622 819
1042 1077 461 284 964 457 1479 508 220 22 548 11 785 -26 558 -86 1102 -327
1586 -703 314 -243 640 -652 822 -1031 123 -255 130 -270 139 -270 12 0 12 4
-16 195 -31 207 -45 268 -91 410 -222 678 -847 1375 -1559 1737 -321 163 -668
271 -985 308 -124 14 -625 21 -763 10z"/>
<path d="M19320 26954 c-483 -44 -850 -169 -1326 -453 -243 -145 -380 -249
-545 -414 -280 -280 -525 -670 -654 -1038 -155 -443 -152 -907 7 -1399 82
-256 364 -752 556 -981 282 -336 759 -661 1217 -831 204 -76 687 -175 900
-185 207 -10 506 30 802 107 426 111 800 299 1143 575 137 111 357 333 459
465 266 342 464 760 548 1155 25 118 27 149 27 340 0 232 -13 324 -79 584 -64
252 -136 438 -245 627 -325 564 -750 935 -1390 1212 -237 102 -506 181 -740
218 -101 16 -567 28 -680 18z m675 -298 c648 -104 1330 -481 1727 -955 263
-315 430 -688 495 -1111 32 -211 23 -497 -23 -730 -54 -266 -183 -577 -350
-840 -489 -773 -1560 -1284 -2484 -1186 -918 98 -1661 588 -2114 1394 -102
182 -190 418 -237 637 -38 179 -48 593 -17 790 24 159 137 473 240 665 191
358 549 731 901 941 126 75 410 214 537 264 186 73 418 126 635 145 152 13
572 4 690 -14z"/>
<path d="M22824 25186 c-9 -28 -34 -302 -44 -481 -13 -253 -32 -997 -25 -1003
8 -8 185 16 242 33 61 18 89 43 97 88 37 196 33 1158 -5 1275 -16 48 -78 76
-202 91 -39 5 -60 4 -63 -3z"/>
<path d="M16075 25132 c-51 -17 -57 -27 -67 -113 -14 -110 -14 -997 0 -1107
11 -95 27 -119 104 -158 82 -42 247 -70 262 -45 3 5 1 67 -4 137 -5 71 -14
332 -20 579 -5 248 -13 501 -16 564 -9 150 -10 151 -141 150 -54 -1 -107 -4
-118 -7z"/>
<path d="M16545 23381 c-17 -56 62 -311 157 -503 186 -375 501 -733 908 -1029
521 -380 1154 -613 1785 -659 330 -24 645 18 1092 145 423 122 872 368 1308
719 352 283 606 630 754 1028 75 202 99 318 66 318 -22 0 -62 -57 -148 -212
-43 -78 -108 -187 -144 -242 -232 -355 -606 -764 -889 -973 -354 -260 -843
-461 -1359 -558 -173 -33 -471 -43 -734 -26 -207 13 -276 23 -438 61 -411 98
-902 310 -1173 508 -220 161 -533 455 -662 622 -146 190 -321 470 -411 660
-75 156 -98 186 -112 141z"/>
<path d="M16984 21915 c53 -125 355 -453 562 -608 190 -142 561 -332 889 -454
348 -130 817 -204 1200 -189 351 13 619 67 1070 218 465 155 735 288 980 485
201 161 451 429 431 462 -11 17 -53 -5 -186 -98 -296 -209 -726 -459 -955
-556 -302 -128 -616 -213 -970 -261 -187 -26 -665 -26 -860 -1 -245 32 -505
89 -670 148 -449 158 -1150 562 -1414 814 -43 41 -81 75 -85 75 -3 0 0 -16 8
-35z"/>
<path d="M22375 21737 c-211 -294 -465 -561 -660 -696 -247 -170 -735 -399
-1075 -505 -138 -42 -332 -90 -455 -111 -367 -63 -879 -70 -1199 -15 -331 57
-773 199 -1084 350 -457 222 -787 488 -1076 869 -59 78 -118 149 -132 157 -17
12 -35 14 -61 9 -137 -25 -836 -390 -1125 -587 -295 -202 -630 -503 -891 -802
l-77 -88 0 -1157 0 -1157 269 -12 c292 -14 556 -34 720 -57 57 -8 106 -13 108
-11 2 2 -3 107 -11 232 -37 548 -50 1209 -25 1323 16 77 61 129 149 174 152
77 -186 70 3750 68 1939 -1 3545 -4 3570 -7 155 -18 209 -42 288 -129 57 -62
69 -94 108 -290 33 -164 40 -462 21 -975 -8 -217 -13 -396 -12 -398 1 -1 24 2
51 8 27 6 222 31 434 55 212 24 431 49 487 56 l103 12 2 1150 3 1149 -96 107
c-247 274 -725 674 -1014 848 -179 107 -777 420 -910 476 -104 43 -94 46 -160
-46z m-5704 -87 c29 -16 49 -64 49 -119 0 -66 -20 -81 -112 -81 -38 0 -70 5
-74 11 -13 22 -17 135 -5 158 20 37 98 54 142 31z m5951 -29 c62 -70 13 -201
-77 -201 -39 0 -93 33 -105 66 -21 54 -7 135 28 162 11 9 36 12 71 9 46 -3 59
-9 83 -36z m-5892 -371 c25 -14 40 -63 40 -134 0 -86 -13 -101 -101 -116 -100
-17 -114 -9 -122 71 -4 34 -7 91 -7 125 l0 64 86 0 c47 0 94 -4 104 -10z
m5803 -21 c56 -15 77 -55 77 -146 l0 -73 -126 0 -126 0 6 88 c4 48 10 95 12
104 9 32 91 46 157 27z m40 -408 c4 -1 6 -56 5 -123 l-3 -123 -94 -3 c-52 -1
-99 2 -104 7 -10 10 -23 221 -15 243 4 10 27 12 104 7 55 -4 103 -7 107 -8z
m-5792 -10 c22 -18 24 -27 27 -135 l4 -116 -69 0 c-91 0 -139 14 -147 43 -7
28 -6 132 3 172 8 38 41 55 107 55 36 0 59 -6 75 -19z m26 -506 c44 -50 38
-166 -10 -200 -28 -19 -90 -19 -128 1 -50 26 -72 103 -49 171 10 27 27 42 70
57 32 11 95 -4 117 -29z m5757 6 c17 -18 21 -33 20 -89 0 -37 -6 -77 -12 -89
-16 -28 -74 -47 -129 -40 -69 7 -76 20 -81 143 l-5 107 93 -5 c77 -5 96 -9
114 -27z"/>
<path d="M16027 19370 c-52 -4 -83 -11 -94 -23 -16 -15 -15 -54 5 -584 12
-313 42 -1160 67 -1883 25 -723 46 -1337 47 -1365 l3 -50 3485 -5 c1917 -3
3487 -4 3489 -3 2 2 28 654 57 1450 29 797 58 1554 65 1683 18 363 0 591 -55
672 -12 18 -42 44 -66 57 -42 23 -54 25 -309 32 -220 7 -5983 31 -6466 27 -82
0 -185 -4 -228 -8z"/>
<path d="M23720 17689 c-67 -13 -130 -39 -130 -54 0 -18 31 -36 157 -93 133
-59 209 -109 283 -183 67 -66 166 -211 214 -313 63 -133 77 -200 83 -402 6
-211 0 -242 -79 -397 -134 -261 -320 -428 -563 -507 -38 -12 -79 -31 -90 -41
-18 -18 -19 -21 -5 -47 31 -55 108 -61 280 -21 271 62 489 202 631 403 l49 69
0 521 0 522 -47 82 c-103 177 -239 308 -408 393 -142 70 -256 91 -375 68z"/>
<path d="M15133 17646 c-203 -51 -435 -289 -559 -573 l-34 -78 0 -380 0 -380
50 -102 c64 -135 109 -201 200 -296 112 -118 276 -236 329 -237 25 0 4 54 -62
167 -36 59 -78 140 -94 178 -17 39 -49 99 -72 135 -116 179 -175 367 -174 560
0 207 47 308 260 561 163 194 336 319 537 388 28 10 51 22 53 28 7 20 -77 35
-227 39 -107 2 -171 0 -207 -10z"/>
<path d="M23526 17298 c-8 -13 -19 -44 -25 -69 -20 -89 -51 -720 -51 -1035 0
-191 -4 -184 108 -184 96 0 172 39 272 140 155 156 199 287 186 545 -11 223
-50 320 -181 450 -85 85 -223 175 -269 175 -15 0 -31 -9 -40 -22z"/>
<path d="M15463 17210 c-123 -44 -218 -123 -336 -280 -69 -93 -87 -152 -94
-315 -4 -106 -2 -132 21 -218 28 -110 78 -231 145 -357 94 -174 277 -316 397
-308 l49 3 3 270 c4 307 -9 591 -42 950 -28 300 -27 297 -143 255z"/>
<path d="M15020 15258 c-1350 -6 -2456 -11 -2458 -12 -1 -2 -1 -323 0 -714 l3
-711 85 56 c225 147 633 311 890 358 97 18 438 33 484 21 51 -13 76 -150 76
-426 0 -178 -11 -269 -61 -495 -63 -288 -186 -585 -347 -839 -93 -148 -291
-413 -377 -505 l-71 -76 19 -120 c27 -166 28 -470 3 -610 -36 -201 -117 -392
-227 -531 -96 -122 -683 -791 -822 -938 -49 -51 -61 -40 -45 40 7 36 12 148
11 289 0 259 -18 392 -74 559 -29 88 -101 236 -138 285 l-19 25 -58 -35 c-37
-22 -121 -98 -234 -212 -111 -112 -182 -177 -195 -177 -32 0 -66 26 -325 242
-449 376 -503 428 -503 478 0 33 7 42 184 257 117 141 179 232 179 263 0 7
-599 10 -1900 10 l-1901 0 12 -22 c7 -13 60 -97 117 -188 656 -1032 1507
-1946 2517 -2702 2700 -2021 6423 -2733 10235 -1957 1069 218 2134 551 3160
989 343 147 509 224 905 420 1417 703 2714 1588 3920 2675 176 158 611 573
750 714 l69 71 -1177 0 -1177 0 0 1753 0 1754 -2562 6 c-5293 14 -6556 15
-8948 5z m10469 -540 c28 -180 52 -271 100 -373 43 -92 88 -148 142 -175 40
-21 203 -52 364 -70 92 -11 145 -28 145 -49 0 -32 -93 -57 -304 -81 -176 -20
-259 -58 -336 -152 -57 -69 -77 -132 -114 -357 -20 -117 -41 -220 -47 -227
-14 -17 -43 -18 -57 -1 -14 18 -20 56 -32 212 -12 163 -26 274 -41 328 -20 75
-114 151 -220 177 -24 6 -128 19 -232 29 -202 20 -241 33 -235 74 5 33 79 53
259 72 85 9 171 21 191 26 56 14 181 118 206 171 27 54 63 196 101 396 16 84
35 159 42 168 26 31 45 -16 68 -168z m-4301 -1470 l-3 -873 -412 -3 -413 -2 0
-1785 0 -1785 -940 0 -940 0 0 1783 0 1784 -652 6 c-387 4 -708 3 -788 -3
-292 -20 -504 -110 -681 -289 -163 -166 -239 -365 -239 -630 0 -131 13 -212
49 -319 37 -105 80 -177 160 -264 145 -157 308 -248 536 -300 80 -18 135 -21
483 -25 l392 -5 0 -870 0 -869 -632 4 c-699 4 -710 5 -981 72 -175 44 -296 89
-472 175 -260 127 -451 266 -681 495 -180 178 -251 264 -366 440 -317 482
-459 1080 -407 1712 54 664 308 1213 771 1670 155 153 250 232 408 338 358
240 709 362 1170 408 19 2 1071 5 2338 5 l2302 2 -2 -872z m3232 12 l0 -860
-576 0 c-411 0 -588 -3 -616 -12 -70 -21 -135 -121 -154 -238 l-7 -40 677 0
676 0 0 -805 0 -805 -686 0 -685 0 3 -849 c2 -467 1 -851 -2 -853 -3 -2 -425
-2 -937 0 l-933 4 0 1646 c0 994 4 1712 10 1812 47 757 268 1250 690 1534 225
152 559 261 921 301 200 22 173 21 922 23 l697 2 0 -860z m-14380 -1855 c77
-40 61 -125 -22 -125 -77 0 -120 96 -58 127 33 16 45 16 80 -2z m-175 -179
c58 -24 73 -85 33 -130 -54 -59 -148 -19 -148 63 0 46 9 60 46 71 16 4 30 9
32 9 1 1 18 -5 37 -13z m-321 -408 c35 -50 12 -115 -68 -198 -44 -45 -53 -50
-92 -50 -49 0 -84 25 -84 60 0 49 63 137 128 180 55 36 95 39 116 8z m1120 3
c16 -17 13 -23 -71 -117 -163 -183 -376 -408 -587 -620 -250 -251 -362 -332
-382 -279 -4 8 1 26 10 40 25 38 146 175 155 175 4 0 13 -18 20 -40 6 -22 17
-40 23 -40 31 0 828 837 828 870 0 5 -19 11 -42 14 -88 11 -92 13 -32 15 48 1
65 -3 78 -18z m422 -382 c33 -64 13 -141 -60 -232 -102 -128 -802 -904 -830
-919 -27 -15 -46 2 -46 41 0 39 19 76 86 162 l44 57 50 -15 51 -15 63 69 c294
319 547 605 595 674 28 40 36 61 39 110 4 52 1 65 -19 92 -15 21 -17 27 -5 18
9 -8 24 -27 32 -42z m-614 -312 c-114 -152 -819 -909 -873 -937 -31 -17 -35
14 -8 59 22 37 215 266 342 406 l54 59 27 -18 c28 -18 28 -18 58 11 49 46 354
384 392 435 20 26 37 53 37 60 1 7 3 5 6 -5 3 -11 -11 -39 -35 -70z m1264
-224 c43 -43 43 -66 -1 -110 -44 -44 -69 -41 -112 15 -37 48 -42 91 -15 114
39 35 81 29 128 -19z m-144 -139 c15 -8 35 -25 44 -39 19 -28 10 -50 -37 -89
-45 -38 -83 -35 -130 13 -92 92 0 178 123 115z m-376 -401 c48 -52 44 -114
-11 -187 -40 -51 -113 -99 -146 -94 -32 4 -60 49 -66 102 -5 39 -1 52 22 86
15 22 47 58 71 80 53 49 93 53 130 13z m9704 -714 c-69 -31 -296 -128 -327
-139 l-28 -10 25 20 c40 33 199 107 275 129 91 26 111 26 55 0z m-1785 -678
c-19 -18 -619 -202 -975 -300 -252 -69 -583 -151 -588 -147 -6 7 120 108 203
162 308 200 672 287 1225 293 86 0 140 -3 135 -8z m-3185 -67 c332 -38 646
-118 835 -212 106 -52 158 -88 279 -191 l88 -76 -113 -23 c-379 -76 -826 -141
-1164 -168 -232 -18 -648 -15 -784 6 -277 43 -456 132 -512 253 -28 63 -25 87
10 87 29 0 137 43 351 140 250 113 389 162 527 185 109 18 323 18 483 -1z"/>
<path d="M16584 13799 c-535 -41 -997 -260 -1399 -663 -381 -382 -591 -816
-660 -1357 -20 -164 -20 -492 0 -659 59 -472 227 -852 541 -1219 310 -363 716
-618 1154 -724 221 -54 284 -59 758 -64 l442 -5 0 560 0 560 -262 5 c-283 5
-354 15 -523 71 -252 85 -505 273 -638 473 -205 309 -252 731 -124 1108 133
390 480 677 939 777 74 16 145 21 351 25 l257 6 0 558 0 559 -367 -1 c-203 -1
-413 -5 -469 -10z"/>
<path d="M17980 13250 l0 -560 410 0 410 0 0 -1790 0 -1790 620 0 620 0 0
1790 0 1790 415 0 415 0 0 560 0 560 -1445 0 -1445 0 0 -560z"/>
<path d="M23026 13799 c-439 -26 -784 -128 -1012 -296 -263 -196 -416 -514
-490 -1018 -16 -110 -18 -258 -21 -1747 l-4 -1628 621 0 620 0 0 855 0 855
685 0 685 0 0 485 0 485 -686 0 -686 0 5 183 c4 153 9 198 30 279 51 195 155
342 287 406 117 57 160 62 628 62 l422 0 -2 543 -3 542 -475 1 c-261 1 -533
-2 -604 -7z"/>
<path d="M4620 15244 c0 -3 14 -88 31 -187 259 -1544 804 -2977 1616 -4250
1439 -2259 3678 -3937 6380 -4781 1831 -572 3798 -759 5838 -555 2341 233
4681 979 6850 2182 1173 651 2285 1434 3315 2337 537 470 1157 1087 1644 1635
l98 110 -462 3 -462 2 -333 -337 c-449 -457 -793 -777 -1229 -1147 -2681
-2270 -5968 -3697 -9296 -4035 -557 -57 -932 -75 -1535 -75 -617 0 -1009 20
-1545 79 -2615 289 -4915 1284 -6715 2905 -1361 1226 -2365 2759 -2946 4500
-150 450 -268 897 -354 1340 -25 129 -48 245 -51 258 l-4 22 -420 0 c-231 0
-420 -3 -420 -6z"/>
<path d="M5890 15241 c0 -5 20 -110 45 -233 155 -763 388 -1489 699 -2187 47
-104 107 -233 135 -287 l50 -99 0 1408 1 1407 -465 0 c-269 0 -465 -4 -465 -9z"/>
<path d="M32270 14783 l0 -467 56 95 c76 128 269 471 334 594 29 55 70 133 92
173 l39 72 -260 0 -261 0 0 -467z"/>
<path d="M13680 14066 c-187 -28 -394 -82 -475 -124 l-34 -17 334 -300 c184
-165 337 -300 341 -300 14 0 35 82 60 223 27 159 32 372 11 472 l-12 55 -70 2
c-38 0 -108 -4 -155 -11z"/>
<path d="M12884 13792 c-562 -335 -1112 -954 -1478 -1665 -86 -167 -256 -535
-256 -555 0 -11 186 -184 460 -430 79 -71 144 -122 156 -122 23 0 295 160 476
281 397 266 796 625 1065 958 174 216 343 497 448 742 51 118 50 120 -57 214
-250 219 -723 625 -728 625 -3 0 -41 -22 -86 -48z m100 -522 c119 -45 213
-135 257 -247 20 -49 23 -77 24 -178 0 -111 -2 -124 -28 -177 -58 -118 -207
-220 -348 -237 -137 -18 -243 14 -334 100 -103 97 -155 211 -155 339 0 212
144 382 360 424 49 9 169 -4 224 -24z"/>
<path d="M12981 12982 c-56 -88 -67 -177 -26 -217 27 -28 38 -30 83 -14 27 9
32 17 38 55 11 74 0 139 -30 179 -15 19 -30 35 -34 35 -4 -1 -18 -18 -31 -38z"/>
<path d="M11517 12949 c-223 -22 -393 -63 -535 -129 -154 -72 -213 -125 -517
-455 -152 -166 -261 -293 -254 -299 2 -2 47 1 99 6 159 15 449 -20 646 -78 49
-15 98 -29 109 -31 17 -4 29 11 69 89 119 226 248 440 455 752 95 144 99 157
41 154 -14 0 -65 -5 -113 -9z"/>
<path d="M12920 11593 c-259 -224 -461 -379 -642 -489 -142 -88 -134 -72 -84
-173 101 -202 168 -475 168 -683 l0 -108 27 19 c41 30 107 102 257 281 349
416 400 499 439 720 30 173 32 516 2 553 -10 12 -37 -7 -167 -120z"/>
<path d="M11265 11079 c-36 -34 -70 -70 -75 -80 -8 -15 14 -38 137 -143 80
-69 149 -126 153 -126 8 0 130 139 130 149 0 7 -53 57 -237 224 l-41 38 -67
-62z"/>
</g>
</svg>
