<?xml version="1.0" encoding="utf-8"?>
<!-- Generator: Adobe Adobe Illustrator 24.2.0, SVG Export Plug-In . SVG Version: 6.00 Build 0)  -->
<svg version="1.1" id="Layer_1" xmlns="http://www.w3.org/2000/svg" xmlns:xlink="http://www.w3.org/1999/xlink" x="0px" y="0px"
	 viewBox="0 0 505.2 207.7" style="enable-background:new 0 0 505.2 207.7;" xml:space="preserve">
<style type="text/css">
	.st0{fill:#4440A0;}
	.st1{fill:#F5DC38;}
	.st2{fill-rule:evenodd;clip-rule:evenodd;fill:#F5DC38;}
</style>
<polygon id="bg" class="st0" points="501,22.3 501,13.4 492.6,13.4 492.6,4.5 484.2,4.5 484.2,0 335.5,0 316.8,0 280.9,0 262.3,0 
	207.7,0 21.5,0 21.5,4.5 13.1,4.5 13.1,13.4 4.6,13.4 4.6,22.3 0,22.3 0,184.8 4.6,184.8 4.6,193.7 13.1,193.7 13.1,202.6 
	21.5,202.6 21.5,207.7 207.3,207.7 261.3,207.7 282.6,207.7 334.6,207.7 336.7,207.7 405.9,207.7 405.9,201.9 414.3,201.9 
	414.3,193 422.7,193 422.7,184.8 336.5,184.8 334.4,184.8 282.4,184.8 261.4,184.8 207.3,184.8 43.5,184.8 43.5,180.8 35.1,180.8 
	35.1,184.8 35.1,184.8 35.1,180.8 35.1,180.8 35.1,171.8 35.1,171.8 35.1,171.8 26.7,171.8 26.7,162.9 21.7,162.9 21.7,44 26.7,44 
	26.7,35.1 35.1,35.1 35.1,26.2 43.5,26.2 43.5,22.9 207.6,22.9 262.3,22.9 281.1,22.9 317,22.9 335.7,22.9 463.1,22.9 463.1,26 
	471.6,26 471.6,34.9 480,34.9 480,43.8 483.6,43.8 483.6,170.2 478,170.2 478,179.1 473.8,179.1 469.6,179.1 469.6,184.8 462,184.8 
	462,175.9 461.9,175.9 461.9,167 470.3,167 470.3,158.1 475,158.1 475,54.1 470.9,54.1 470.9,45.2 462.5,45.2 462.5,36.3 
	454.1,36.3 454.1,31.7 317.1,31.7 317.1,31.9 281.1,31.9 281.1,31.7 207.6,31.7 51.9,31.7 51.9,36.2 43.5,36.2 43.5,45.1 35.1,45.1 
	35.1,54 30.3,54 30.3,152.6 35.1,152.6 35.1,161.5 43.5,161.5 43.5,170.4 51.9,170.4 51.9,175.7 207.4,175.7 274.9,175.7 
	274.9,175.9 349.9,175.9 349.9,175.7 440.3,175.7 440.3,207.7 483.3,207.7 483.3,201.9 491.7,201.9 491.7,194.5 492.6,194.5 
	492.6,193 500.1,193 500.1,184.1 505.2,184.1 505.2,22.3 "/>
<polygon id="outline_right" class="st1" points="467.1,100.8 467.1,150.9 461.7,150.9 461.7,153.7 461.7,154.1 461.7,159.9 
	456.4,159.9 453.2,159.9 453.2,163.1 453.2,168.8 318.9,168.8 318.9,172 456.4,172 456.4,168.8 456.4,163.1 461.7,163.1 
	464.9,163.1 464.9,154.1 470.3,154.1 470.3,153.7 470.3,150.9 470.3,100.8 "/>
<polygon id="outline_left" class="st1" points="60.9,35.6 57.8,35.6 57.8,38.8 57.8,40.6 49.4,40.6 49.4,43.8 49.4,49.5 41,49.5 
	41,52.7 41,57.9 38.8,57.9 35.7,57.9 35.7,61.1 35.7,93.3 38.8,93.3 38.8,61.1 44.1,61.1 44.1,59.5 44.1,59.5 44.1,52.7 49.4,52.7 
	52.5,52.7 52.5,43.8 57.8,43.8 60.9,43.8 60.9,38.8 188.6,38.8 188.6,35.6 "/>
<polygon id="text_h" class="st1" points="163.1,90.1 163.1,158.6 171.2,158.6 171.2,151.8 179.4,151.8 179.4,124.3 211.9,124.3 
	211.9,144.9 228.2,144.9 228.2,76.3 220.1,76.3 220.1,83.2 211.9,83.2 211.9,110.6 179.4,110.6 179.4,90.1 "/>
<polygon id="text_a" class="st1" points="301.4,144.9 301.4,90.1 293.3,90.1 293.3,96.9 285.1,96.9 285.1,103.8 277,103.8 
	277,110.6 268.9,110.6 268.9,117.5 260.7,117.5 260.7,124.3 252.6,124.3 252.6,131.2 244.5,131.2 244.5,138.1 236.3,138.1 
	236.3,144.9 260.7,144.9 260.7,138.1 268.9,138.1 268.9,131.2 277,131.2 277,124.3 285.1,124.3 285.1,144.9 "/>
<polygon id="text_k" class="st1" points="382.8,90.1 382.8,144.9 399,144.9 399,124.3 407.2,124.3 407.2,131.2 415.3,131.2 
	415.3,138.1 423.4,138.1 423.4,144.9 431.6,144.9 431.6,151.8 439.7,151.8 439.7,158.6 447.9,158.6 447.9,138.1 439.7,138.1 
	439.7,131.2 431.6,131.2 431.6,124.3 423.4,124.3 423.4,110.6 431.6,110.6 431.6,103.8 439.7,103.8 439.7,96.9 447.9,96.9 
	447.9,90.1 423.4,90.1 423.4,96.9 415.3,96.9 415.3,103.8 407.2,103.8 407.2,110.6 399,110.6 399,90.1 "/>
<polygon id="text_c" class="st1" points="362.4,97 362.4,90.1 362.4,90.1 329.9,90.1 329.9,90.1 329.9,97 321.8,97 321.8,103.8 
	313.6,103.8 313.6,131.2 321.8,131.2 321.8,138 329.9,138 329.9,144.9 329.9,144.9 362.4,144.9 362.4,144.9 362.4,138 370.6,138 
	370.6,131.2 329.9,131.2 329.9,103.8 370.6,103.8 370.6,97 "/>
<g id="_x40_">
	<path class="st2" d="M61.7,65.6l-5.3,5.3v36.6V144l5.3,5.3l5.3,5.3h26.3h26.3v-5.1v-5.1h-24h-24l-2.3-2.3l-2.3-2.3v-32.3V75.2
		l2.3-2.3l2.3-2.3h30.2h30.2l2.3,2.3l2.3,2.3v24.1v24.1h-5.2H126v-21.1V81.2h-19h-19l-5.3,5.3l-5.3,5.3v15.6v15.6l5.3,5.3l5.3,5.3
		h29.5h29.5v-31.4V70.8l-5.3-5.3l-5.3-5.3h-34.7H67L61.7,65.6 M92.2,95.9L92,96.1v11.3v11.3l0.2,0.2l0.2,0.2h9.4h9.4v-11.7V95.7
		h-9.4h-9.4L92.2,95.9"/>
</g>
</svg>
