<?xml version="1.0" standalone="no"?>
<!DOCTYPE svg PUBLIC "-//W3C//DTD SVG 20010904//EN"
 "http://www.w3.org/TR/2001/REC-SVG-20010904/DTD/svg10.dtd">
<svg version="1.0" xmlns="http://www.w3.org/2000/svg"
 width="1103.000000pt" height="351.000000pt" viewBox="0 0 1103.000000 351.000000"
 preserveAspectRatio="xMidYMid meet">

<g transform="translate(0.000000,351.000000) scale(0.100000,-0.100000)"
fill="#000000" stroke="none">
<path d="M7148 2949 c-14 -24 -54 -97 -89 -163 -38 -69 -73 -122 -86 -128 -17
-8 -37 -3 -102 29 -58 29 -81 36 -81 25 0 -7 21 -121 46 -252 49 -253 51 -290
10 -290 -18 0 -54 33 -140 125 -64 69 -119 126 -122 127 -4 2 -15 -25 -25 -58
-11 -34 -25 -67 -33 -73 -11 -9 -47 -5 -158 17 -78 16 -144 25 -146 21 -2 -5
3 -30 11 -56 36 -114 68 -243 65 -260 -2 -10 -27 -29 -61 -45 -31 -15 -57 -30
-57 -32 0 -2 110 -91 245 -197 135 -106 247 -201 251 -211 3 -9 -4 -49 -16
-88 -22 -74 -20 -96 8 -81 9 4 58 13 107 20 50 6 104 14 120 16 166 23 207 27
231 21 l27 -7 -7 -212 c-4 -117 -9 -233 -13 -259 l-6 -48 42 0 42 0 -7 250
c-8 274 -7 280 50 280 17 0 125 -14 240 -30 115 -16 211 -28 213 -26 3 2 -5
36 -17 75 -12 40 -19 80 -16 89 4 10 116 105 251 211 135 106 245 195 245 197
0 2 -26 17 -57 32 -34 16 -59 35 -61 45 -3 17 29 146 65 260 8 26 13 51 11 56
-2 4 -68 -5 -146 -21 -108 -22 -147 -26 -157 -18 -8 6 -23 40 -35 75 l-21 64
-67 -72 c-167 -180 -175 -187 -198 -187 -41 0 -39 37 10 290 25 131 46 245 46
253 0 11 -21 4 -81 -25 -65 -32 -85 -38 -103 -30 -13 6 -53 68 -101 157 -106
196 -97 186 -127 134z"/>
<path d="M3402 1992 c-117 -345 -212 -630 -212 -634 0 -5 60 -8 134 -8 124 0
135 2 147 21 l14 20 57 -26 c109 -50 227 -43 349 21 221 116 393 408 393 669
0 127 -34 190 -121 221 -89 31 -205 11 -330 -57 -40 -21 -74 -39 -76 -39 -2 0
26 89 63 198 37 108 70 207 74 220 l7 22 -143 0 -143 0 -213 -628z m517 67
c35 -12 61 -53 61 -96 0 -88 -74 -265 -140 -337 -66 -72 -169 -102 -262 -76
l-36 10 78 227 c84 246 84 246 168 269 60 16 91 17 131 3z"/>
<path d="M1955 2580 c-315 -50 -573 -286 -691 -633 -36 -106 -38 -118 -38
-242 -1 -130 -1 -130 33 -194 40 -72 95 -119 179 -152 46 -18 84 -23 192 -27
151 -5 236 10 385 67 l81 31 43 133 c24 72 46 138 48 145 9 22 -14 13 -95 -37
-150 -93 -260 -126 -368 -109 -177 28 -223 196 -121 446 72 176 198 299 347
337 126 33 218 7 320 -91 31 -30 63 -54 71 -54 9 0 31 49 62 138 26 75 47 140
47 144 0 13 -113 65 -176 82 -73 20 -239 28 -319 16z"/>
<path d="M8772 2579 c-81 -10 -121 -23 -202 -65 -82 -42 -158 -109 -199 -172
-68 -106 -90 -236 -52 -310 35 -69 82 -95 265 -146 141 -40 170 -55 192 -99
31 -58 -16 -186 -89 -241 -73 -56 -123 -71 -242 -71 -136 0 -198 22 -280 97
-32 29 -60 47 -64 42 -5 -5 -22 -50 -39 -101 l-30 -91 77 -35 c99 -45 159 -57
284 -57 119 0 184 15 283 65 177 90 303 272 292 424 -8 119 -63 161 -283 220
-136 37 -177 58 -195 101 -26 63 11 163 81 224 63 54 137 78 239 78 107 0 180
-26 249 -88 29 -26 52 -40 56 -34 6 9 65 179 65 186 0 2 -21 13 -47 24 -97 43
-246 63 -361 49z"/>
<path d="M10139 2495 c-14 -41 -23 -77 -21 -80 3 -3 42 -5 87 -5 l81 0 26 80
26 80 -86 0 -87 0 -26 -75z"/>
<path d="M4810 2274 c-196 -52 -359 -192 -450 -389 -113 -241 -89 -421 68
-502 81 -43 137 -54 271 -54 140 0 333 37 378 73 15 12 87 227 79 236 -4 3
-32 -7 -64 -22 -196 -97 -380 -111 -467 -35 -38 34 -50 71 -40 129 l7 40 313
0 314 0 31 98 c38 117 48 213 30 279 -19 65 -81 127 -151 147 -67 20 -244 20
-319 0z m177 -198 c23 -27 30 -75 17 -123 -6 -23 -9 -23 -175 -23 -93 0 -169
4 -169 9 0 16 65 104 91 123 43 32 101 48 158 45 44 -3 59 -9 78 -31z"/>
<path d="M9538 2265 c-228 -58 -413 -267 -479 -541 -41 -172 -7 -298 96 -352
111 -57 261 -55 428 8 l56 21 26 80 c15 44 25 83 22 85 -3 3 -22 -6 -44 -20
-112 -74 -280 -103 -353 -60 -52 30 -73 67 -78 131 -12 168 112 407 252 487
116 67 250 54 349 -34 21 -18 39 -31 41 -29 2 2 16 42 31 88 31 94 34 88 -55
122 -70 28 -211 35 -292 14z"/>
<path d="M2430 2189 c0 -88 16 -566 25 -719 l5 -95 -131 -180 -131 -180 148
-3 c131 -2 150 -1 165 15 19 20 879 1232 879 1239 0 3 -66 3 -146 2 l-146 -3
-180 -275 c-99 -151 -184 -279 -190 -285 -7 -7 -9 82 -7 275 l4 285 -147 3
-148 3 0 -82z"/>
<path d="M5531 2248 c-26 -71 -301 -886 -301 -892 0 -3 64 -5 142 -4 l143 3
100 295 c55 162 103 300 107 306 14 22 150 48 248 49 l94 0 43 120 c23 66 42
126 42 133 1 17 -73 16 -140 -4 -50 -14 -144 -61 -204 -100 l-25 -16 20 58
c11 31 20 61 20 66 0 4 -63 8 -140 8 -137 0 -141 -1 -149 -22z"/>
<path d="M10065 2248 c-3 -7 -72 -212 -155 -455 l-149 -443 77 0 77 0 150 441
c83 243 151 448 153 455 5 19 -146 20 -153 2z"/>
</g>
</svg>
