<?xml version="1.0" standalone="no"?>
<!DOCTYPE svg PUBLIC "-//W3C//DTD SVG 20010904//EN"
 "http://www.w3.org/TR/2001/REC-SVG-20010904/DTD/svg10.dtd">
<svg version="1.0" xmlns="http://www.w3.org/2000/svg"
 width="150.000000pt" height="150.000000pt" viewBox="0 0 150.000000 150.000000"
 preserveAspectRatio="xMidYMid meet">

<g transform="translate(0.000000,150.000000) scale(0.100000,-0.100000)"
fill="#000000" stroke="none">
<path d="M930 1443 c-15 -7 -26 -9 -28 -3 -6 17 -48 11 -65 -8 -27 -29 -21
-42 12 -32 29 8 30 7 26 -21 -2 -18 1 -29 9 -29 12 0 46 35 46 47 0 3 7 14 16
24 23 25 14 37 -16 22z"/>
<path d="M440 1424 c-8 -1 -31 -5 -51 -9 -43 -6 -129 -61 -129 -81 0 -10 12
-14 38 -14 58 0 121 -38 163 -98 20 -28 39 -49 43 -45 9 9 8 5 -14 -65 -11
-36 -20 -92 -20 -128 0 -117 44 -280 85 -314 16 -13 17 -10 10 54 -7 65 -6 70
16 87 l24 19 -24 0 c-22 0 -23 2 -17 53 6 42 4 56 -8 67 -9 7 -16 19 -16 26 0
16 68 47 87 40 7 -3 13 -2 13 3 0 13 46 19 64 9 10 -6 16 -5 16 2 0 5 16 10
36 10 23 0 33 -4 28 -11 -5 -8 -2 -9 11 -2 17 10 65 6 65 -6 0 -3 11 -7 25 -7
14 -1 37 -9 51 -19 l25 -16 -19 -31 c-16 -25 -18 -36 -9 -64 12 -41 6 -49 -45
-57 -33 -5 -44 -1 -89 35 l-51 40 -21 -20 c-12 -11 -46 -32 -74 -46 -34 -17
-53 -33 -53 -44 0 -30 65 -84 117 -98 44 -12 45 -13 15 -13 -48 -1 -94 22
-131 65 -25 30 -31 33 -26 16 3 -12 8 -48 9 -80 1 -31 7 -67 14 -78 18 -34 71
-74 137 -106 76 -35 95 -36 95 -3 0 30 21 75 58 124 19 26 26 48 27 90 l2 56
-22 -50 c-12 -28 -30 -57 -41 -65 -18 -14 -18 -14 -2 5 14 18 68 129 68 143 0
2 -20 -14 -45 -37 -26 -24 -54 -41 -67 -41 -20 1 -20 2 7 14 40 18 69 51 61
72 -5 12 -2 15 10 10 8 -3 22 -6 30 -6 11 0 14 -17 14 -75 0 -41 4 -75 9 -75
12 0 16 13 36 133 22 126 17 184 -21 214 -79 63 -341 54 -416 -14 -24 -21 -25
-156 -2 -232 21 -73 11 -75 -17 -4 -17 45 -23 79 -23 156 l-1 98 37 34 c36 33
36 34 16 52 -14 13 -18 25 -14 46 4 19 1 29 -9 33 -8 4 -15 10 -15 15 0 20 69
84 113 104 l47 22 -41 38 c-55 50 -134 79 -189 69z m247 -641 c-3 -10 -5 -4
-5 12 0 17 2 24 5 18 2 -7 2 -21 0 -30z m63 12 c0 -14 -4 -25 -10 -25 -5 0
-10 5 -10 10 0 6 -8 11 -17 11 -17 1 -17 2 0 6 9 2 17 9 17 14 0 5 5 9 10 9 6
0 10 -11 10 -25z m50 17 l-25 -5 25 -8 25 -7 -27 -1 c-14 -1 -29 -7 -31 -13
-3 -7 -6 -1 -6 15 -1 24 2 27 32 26 28 -2 29 -2 7 -7z m-142 -142 c16 0 15
-17 0 -23 -7 -3 -2 -6 11 -6 16 -1 21 -5 17 -16 -4 -11 2 -15 26 -15 25 0 28
-3 19 -14 -24 -29 -50 -25 -81 11 -48 54 -70 126 -27 85 13 -12 29 -22 35 -22z
m241 -12 c-14 -27 -79 -101 -79 -90 0 4 18 29 40 56 22 26 40 53 40 59 0 6 3
8 6 5 3 -4 0 -17 -7 -30z m-267 -55 c16 -24 27 -43 24 -43 -9 0 -66 89 -65
102 0 9 2 8 6 -2 3 -8 19 -34 35 -57z m189 -7 c-9 -18 -18 -29 -19 -24 -4 8
24 58 32 58 2 0 -4 -15 -13 -34z m-81 -47 c29 -14 45 -18 48 -10 4 12 32 15
32 4 0 -5 -4 -14 -9 -21 -6 -10 -20 -8 -64 12 -32 14 -57 27 -57 30 0 9 2 8
50 -15z m69 -65 c8 -8 -44 13 -88 35 -22 12 -42 24 -45 29 -5 8 123 -54 133
-64z"/>
<path d="M1115 1418 c-2 -7 -6 -29 -9 -49 -8 -45 -54 -111 -95 -135 l-30 -18
24 -41 c15 -24 30 -73 37 -118 6 -42 15 -77 19 -77 15 0 113 117 130 155 34
74 20 193 -31 266 -23 31 -38 37 -45 17z"/>
<path d="M808 1363 c7 -3 16 -2 19 1 4 3 -2 6 -13 5 -11 0 -14 -3 -6 -6z"/>
<path d="M761 1323 c-1 -8 -16 -13 -38 -13 -21 0 -60 -10 -86 -23 l-49 -22
161 0 c89 0 161 1 161 3 0 8 -89 42 -112 42 -14 0 -29 6 -31 13 -4 10 -6 10
-6 0z"/>
<path d="M730 1231 c17 -33 11 -68 -16 -101 -15 -17 -25 -32 -23 -34 2 -2 38
-5 80 -8 76 -3 76 -3 48 14 -46 28 -63 83 -39 129 10 17 7 19 -25 19 -32 0
-35 -2 -25 -19z"/>
<path d="M575 1216 c-13 -13 -25 -20 -27 -14 -2 5 -3 -11 -3 -35 1 -58 18 -77
64 -75 l36 1 -35 4 c-37 5 -60 19 -60 36 0 6 6 3 14 -8 27 -37 129 0 142 52
15 58 -83 87 -131 39z"/>
<path d="M810 1222 c-45 -37 -4 -96 75 -109 30 -5 41 -2 51 12 52 70 -57 153
-126 97z"/>
<path d="M946 1217 c3 -10 9 -15 12 -12 3 3 0 11 -7 18 -10 9 -11 8 -5 -6z"/>
<path d="M962 1165 c0 -16 2 -22 5 -12 2 9 2 23 0 30 -3 6 -5 -1 -5 -18z"/>
<path d="M980 1157 c0 -39 -32 -69 -81 -77 l-44 -7 47 -2 c37 -1 55 -7 80 -30
28 -25 32 -35 36 -93 3 -46 -2 -84 -17 -133 -23 -80 -22 -95 5 -33 26 62 32
256 10 331 -18 61 -36 83 -36 44z"/>
<path d="M940 1116 c-6 -8 -26 -17 -43 -19 l-32 -4 31 -1 c20 -1 37 5 49 18
10 11 16 20 13 20 -3 0 -11 -6 -18 -14z"/>
<path d="M602 1051 c-29 -10 -59 -24 -65 -30 -7 -7 9 -3 34 8 26 12 77 25 115
30 66 8 67 9 19 9 -27 1 -74 -7 -103 -17z"/>
<path d="M582 977 c-9 -11 -9 -21 4 -46 17 -33 41 -39 88 -21 19 7 29 6 40 -5
13 -13 15 -12 18 7 4 29 24 34 31 8 4 -18 9 -20 24 -11 12 6 25 6 34 0 7 -5
29 -9 47 -9 39 0 34 -19 -6 -21 -24 -2 -25 -2 -4 -6 25 -5 55 14 46 28 -3 5 1
23 9 39 13 25 13 31 1 41 -17 14 -105 3 -116 -14 -6 -9 -13 -9 -28 1 -17 11
-25 11 -37 1 -11 -10 -19 -10 -32 -2 -32 20 -106 26 -119 10z"/>
<path d="M372 866 c-84 -86 -104 -128 -104 -212 1 -63 17 -114 52 -165 30 -42
50 -38 50 9 0 57 38 121 96 162 l50 35 -23 65 c-12 36 -25 91 -29 123 -4 31
-10 57 -14 57 -3 0 -39 -33 -78 -74z"/>
<path d="M600 880 c8 -5 26 -10 39 -10 32 0 24 6 -19 14 -25 4 -31 3 -20 -4z"/>
<path d="M981 699 c-12 -19 -21 -37 -21 -41 0 -4 -12 -13 -26 -20 -15 -7 -36
-29 -47 -49 -19 -33 -20 -39 -7 -55 27 -32 101 -57 165 -57 67 1 103 12 158
50 46 32 48 53 5 53 -67 1 -143 51 -189 124 l-18 29 -20 -34z"/>
<path d="M690 363 c0 -18 6 -23 25 -23 25 0 25 0 25 -95 0 -90 1 -95 21 -95
21 0 21 4 18 98 -4 94 -3 97 19 100 12 2 22 9 22 17 0 9 -19 14 -65 17 -62 3
-65 2 -65 -19z"/>
<path d="M272 269 l3 -111 55 -1 55 -1 3 42 c2 32 0 42 -12 42 -9 0 -16 -11
-18 -27 -2 -22 -8 -28 -28 -28 -25 0 -25 1 -25 85 0 81 1 85 23 88 19 3 22 -1
22 -32 0 -25 4 -36 15 -36 11 0 15 12 15 45 l0 45 -55 0 -56 0 3 -111z"/>
<path d="M447 373 c-3 -5 -10 -42 -16 -83 -7 -41 -14 -90 -17 -107 -4 -25 -1
-33 11 -33 8 0 15 9 15 20 0 15 7 20 29 20 20 0 30 -6 34 -20 6 -23 27 -27 27
-6 0 8 -9 58 -20 111 -11 53 -20 99 -20 101 0 7 -39 4 -43 -3z m42 -136 c1
-12 -5 -17 -16 -15 -14 2 -17 11 -14 33 1 17 6 34 9 40 6 10 19 -26 21 -58z"/>
<path d="M550 265 c0 -96 3 -115 15 -115 12 0 15 14 15 70 l0 70 45 0 45 0 0
45 0 45 -60 0 -60 0 0 -115z m90 69 c0 -11 -8 -14 -27 -12 -39 4 -42 28 -4 28
21 0 31 -5 31 -16z"/>
<path d="M840 265 l0 -115 60 0 60 0 0 116 c0 105 -2 115 -17 112 -15 -3 -18
-17 -21 -101 -3 -96 -3 -97 -27 -97 -25 0 -25 0 -25 100 0 82 -3 100 -15 100
-12 0 -15 -19 -15 -115z"/>
<path d="M990 265 c0 -92 3 -115 14 -115 19 0 26 35 20 93 -4 37 -2 47 10 47
16 0 17 -4 36 -87 8 -34 17 -53 26 -53 10 0 13 8 10 23 -3 12 -7 36 -11 52 -3
17 -8 38 -11 48 -4 11 0 17 10 17 12 0 16 11 16 45 l0 45 -60 0 -60 0 0 -115z
m90 75 c0 -5 -13 -10 -30 -10 -16 0 -30 5 -30 10 0 6 14 10 30 10 17 0 30 -4
30 -10z"/>
<path d="M1130 281 c0 -55 3 -106 6 -115 8 -20 118 -24 112 -3 -3 6 -21 13
-40 15 -33 3 -36 6 -40 38 -4 32 -2 34 24 34 37 0 38 28 1 32 -24 3 -28 8 -28
33 0 27 3 30 38 33 24 2 37 8 37 18 0 10 -14 14 -55 14 l-55 0 0 -99z"/>
<path d="M612 75 c1 -33 3 -48 5 -32 5 35 16 35 30 0 10 -25 11 -22 12 30 1
38 -3 56 -9 52 -6 -4 -9 -12 -8 -18 5 -23 -17 -18 -24 5 -3 13 -6 -2 -6 -37z"/>
<path d="M547 112 c6 -4 13 -28 16 -52 l4 -45 1 47 c1 26 7 49 15 51 6 3 -1 6
-18 6 -17 0 -25 -3 -18 -7z"/>
<path d="M672 73 c3 -43 6 -48 28 -50 14 -1 18 0 8 3 -20 6 -25 44 -5 44 6 0
4 5 -5 11 -24 14 -22 27 5 32 18 4 18 4 -6 6 -27 1 -28 0 -25 -46z"/>
<path d="M761 73 c0 -27 3 -41 6 -33 4 8 13 20 22 27 14 11 14 12 -1 13 -25 0
-23 30 1 30 16 0 20 -8 23 -42 2 -36 7 -44 26 -46 12 -2 22 1 22 7 0 6 -7 11
-15 11 -11 0 -15 11 -15 40 0 39 -1 40 -35 40 l-35 0 1 -47z"/>
<path d="M876 98 c-10 -37 -7 -86 3 -69 8 13 12 13 27 1 15 -13 16 -12 10 20
-16 76 -28 91 -40 48z m21 -40 c-3 -7 -5 -2 -5 12 0 14 2 19 5 13 2 -7 2 -19
0 -25z"/>
<path d="M930 70 c0 -47 2 -50 25 -50 21 0 25 5 25 30 0 17 -5 30 -11 30 -6 0
-8 -9 -4 -20 5 -14 2 -20 -10 -20 -12 0 -16 8 -13 33 2 23 8 32 21 31 9 -1 17
2 17 7 0 5 -11 9 -25 9 -23 0 -25 -3 -25 -50z"/>
<path d="M388 63 c23 -2 61 -2 85 0 23 2 4 4 -43 4 -47 0 -66 -2 -42 -4z"/>
<path d="M1053 63 c26 -2 67 -2 90 0 23 2 2 3 -48 3 -49 0 -68 -1 -42 -3z"/>
</g>
</svg>
