<svg version="1.1" id="Layer_1" xmlns="http://www.w3.org/2000/svg" xmlns:xlink="http://www.w3.org/1999/xlink" x="0px" y="0px" style="enable-background:new 0 0 185 188;" xml:space="preserve" viewBox="1 1.95 144.2 57.98"> <style type="text/css">	.st1{fill:#1A1A1A;} 	.st2{fill:#1C75BC;}</style>    <g> 	<path class="st1" d="M138.1,44.5c-2.9,2.8-5.7,4.5-9.6,4.5c-6.5,0-10.7-5.2-10.7-11.6v-0.2c0-6.2,4.2-11.4,10.2-11.4   c4.2,0,6.9,1.8,9.6,4.6l7.3-7.9c-1.2-1.2-2.3-2.4-3.6-3.3c0.1-2.1,0.5-4.1,0.2-6c-1.1-7-7.7-11.7-14.9-11.2c-6.8,0.5-10.4,4-12,8.1   c-1.2,3-0.3,6.5-0.6,10.3c-2.7,2.2-4.8,5.1-6.1,8.4c-2.7-7.6-8.8-13.3-18.9-13.3c-11.8,0-20.2,9.2-20.7,20.6   c-2.5-1.8-5.8-3.1-8.7-4c-4.8-1.6-9.1-2.9-9.1-5.4v-0.2c0-1.7,1.6-3.1,4.7-3.1c3.3,0,7.7,1.6,12.1,4.1l4.8-8.7   c-4.9-3.3-11-5.2-16.7-5.2c-6.8,0-12.6,2.9-15.1,8.2c1.4,2.5,2.1,5.6,2.1,9.1v5.5c2.6,2.6,6.4,3.9,10,5c4.9,1.5,9.2,2.4,9.2,5.2   v0.2c0,2-1.6,3.4-5.4,3.4c-4.1,0-9.1-1.8-13.8-5.2v11.7c4.4,2.2,9.2,3.2,13.5,3.2c7.8,0,14.2-3,16.3-9.3c3.9,5.4,10.3,8.5,17.9,8.5   s13.3-3,17.2-7.9l-6.8-6c-3.3,3.1-6.2,4.3-10.2,4.3c-5.4,0-9.1-2.8-10.3-8.3h26.5c1.7,10.1,10.3,17.8,21.5,17.8   c8.4,0,13.1-3.2,17.2-7.7L138.1,44.5z M135,16.3c-2-0.6-4.3-0.9-6.9-0.9c-2.9,0-5.7,0.5-8.1,1.4C119.1,5.7,135.7,6.2,135,16.3z    M79.7,33.9c1-5.4,4.1-8.9,9.1-8.9c5,0,8.2,3.6,8.8,8.9H79.7z"/> 	<path d="M27.6,58.2V34.8c0-5.7-2.7-8.5-7.2-8.5S13,29.1,13,34.8v23.4H1V19.4l11.9-6v8.7c2.8-3.6,6.2-6.7,12.3-6.7   c9,0,14.3,6,14.3,15.7v27.2L27.6,58.2L27.6,58.2z" class="st1"/> </g></svg>